<?xml version="1.0" encoding="UTF-8" standalone="no"?>
<!-- Created with Inkscape (http://www.inkscape.org/) -->

<svg
   version="1.1"
   id="svg4864"
   xml:space="preserve"
   width="1333.3333"
   height="1333.3333"
   viewBox="0 0 1333.3333 1333.3333"
   sodipodi:docname="logo.svg"
   inkscape:version="1.1 (ce6663b3b7, 2021-05-25)"
   xmlns:inkscape="http://www.inkscape.org/namespaces/inkscape"
   xmlns:sodipodi="http://sodipodi.sourceforge.net/DTD/sodipodi-0.dtd"
   xmlns="http://www.w3.org/2000/svg"
   xmlns:svg="http://www.w3.org/2000/svg"><defs
     id="defs4868"><clipPath
       clipPathUnits="userSpaceOnUse"
       id="clipPath4878"><path
         d="M 0,1000 H 1000 V 0 H 0 Z"
         id="path4876" /></clipPath></defs><sodipodi:namedview
     id="namedview4866"
     pagecolor="#ffffff"
     bordercolor="#666666"
     borderopacity="1.0"
     inkscape:pageshadow="2"
     inkscape:pageopacity="0.0"
     inkscape:pagecheckerboard="0"
     showgrid="false"
     inkscape:zoom="0.110803"
     inkscape:cx="663.33946"
     inkscape:cy="478.32641"
     inkscape:window-width="1366"
     inkscape:window-height="731"
     inkscape:window-x="0"
     inkscape:window-y="0"
     inkscape:window-maximized="1"
     inkscape:current-layer="g4870" /><g
     id="g4870"
     inkscape:groupmode="layer"
     inkscape:label="logo"
     transform="matrix(1.3333333,0,0,-1.3333333,0,1333.3333)"><g
       id="g4872"><g
         id="g4874"
         clip-path="url(#clipPath4878)"><g
           id="g4880"
           transform="translate(899.5,0.375)"><path
             d="m 0,0 h -800 c -55.229,0 -100,44.771 -100,100 v 800 c 0,55.229 44.771,100 100,100 H 0 c 55.229,0 100,-44.771 100,-100 V 100 C 100,44.771 55.229,0 0,0"
             style="fill:#22d1ee;fill-opacity:1;fill-rule:nonzero;stroke:none"
             id="path4882" /></g><g
           id="g4884"
           transform="translate(853.5,650.125)"><path
             d="M 0,0 V -100 H -699.96 L -700,-99.96 -610.53,0 -521,100.03 V 0 Z"
             style="fill:#ffffff;fill-opacity:1;fill-rule:nonzero;stroke:none"
             id="path4886" /></g><g
           id="g4888"
           transform="translate(153.54,550.125)"><path
             d="M 0,0 H -0.04 V 0.04 Z"
             style="fill:#ffffff;fill-opacity:1;fill-rule:nonzero;stroke:none"
             id="path4890" /></g><g
           id="g4892"
           transform="translate(145.5,350.625)"><path
             d="M 0,0 V 100 H 699.96 L 700,99.96 610.53,0 521,-100.03 V 0 Z"
             style="fill:#ffffff;fill-opacity:1;fill-rule:nonzero;stroke:none"
             id="path4894" /></g><g
           id="g4896"
           transform="translate(845.46,450.625)"><path
             d="M 0,0 H 0.04 V -0.04 Z"
             style="fill:#ffffff;fill-opacity:1;fill-rule:nonzero;stroke:none"
             id="path4898" /></g></g></g></g></svg>
